<?xml version="1.0" encoding="UTF-8"?>
<svg xmlns="http://www.w3.org/2000/svg" xmlns:xlink="http://www.w3.org/1999/xlink" width="190px" height="60px" viewBox="0 0 190 60" version="1.1">
<g id="surface1">
<path style=" stroke:none;fill-rule:nonzero;fill:rgb(5.098039%,61.176471%,87.058824%);fill-opacity:1;" d="M 6.058594 9.902344 C 9.113281 9.863281 12.171875 9.824219 15.226562 9.808594 C 16.265625 9.796875 17.304688 9.785156 18.34375 9.773438 C 19.839844 9.75 21.339844 9.738281 22.835938 9.730469 C 23.296875 9.722656 23.757812 9.714844 24.230469 9.703125 C 27.773438 9.703125 30.917969 10.261719 33.726562 12.738281 C 36.355469 16.152344 37.734375 18.613281 37.621094 23.105469 C 37.210938 26.347656 35.800781 28.78125 33.457031 30.871094 C 32.957031 31.261719 32.457031 31.640625 31.941406 32.039062 C 32.703125 34.449219 33.746094 35.949219 35.382812 37.792969 C 35.824219 38.296875 36.261719 38.792969 36.714844 39.316406 C 37.140625 39.796875 37.5625 40.277344 38 40.777344 C 41.304688 44.648438 41.304688 44.648438 41.304688 46.019531 C 32.121094 47.226562 32.121094 47.226562 29.164062 45.277344 C 26.671875 42.863281 24.855469 39.84375 23.070312 36.839844 C 22.105469 35.378906 21.300781 34.472656 19.652344 34.027344 C 18.417969 33.878906 17.214844 33.792969 15.972656 33.785156 C 15.976562 34.3125 15.976562 34.3125 15.980469 34.847656 C 15.992188 36.421875 16 37.996094 16.003906 39.574219 C 16.011719 40.125 16.015625 40.675781 16.019531 41.246094 C 16.023438 42.027344 16.023438 42.027344 16.023438 42.832031 C 16.027344 43.558594 16.027344 43.558594 16.035156 44.300781 C 15.972656 45.441406 15.972656 45.441406 15.421875 46.019531 C 13.945312 46.078125 12.488281 46.101562 11.015625 46.089844 C 10.394531 46.097656 10.394531 46.097656 9.761719 46.101562 C 6.679688 46.097656 6.679688 46.097656 6.058594 45.441406 C 5.898438 43.074219 5.886719 40.707031 5.863281 38.339844 C 5.855469 37.542969 5.839844 36.746094 5.820312 35.949219 C 5.789062 34.800781 5.78125 33.652344 5.769531 32.503906 C 5.757812 31.816406 5.746094 31.125 5.738281 30.417969 C 6.152344 27.996094 7.023438 27.152344 8.8125 25.628906 C 10.628906 24.988281 12.046875 24.949219 13.960938 24.902344 C 14.644531 24.886719 15.332031 24.867188 16.035156 24.847656 C 17.488281 24.808594 18.9375 24.777344 20.386719 24.746094 C 21.414062 24.714844 21.414062 24.714844 22.460938 24.683594 C 23.089844 24.675781 23.722656 24.65625 24.371094 24.644531 C 25.960938 24.628906 25.960938 24.628906 26.984375 23.300781 C 27.167969 21.84375 27.167969 21.84375 26.984375 20.390625 C 25.984375 19.066406 25.984375 19.066406 24.53125 19.160156 C 23.695312 19.199219 23.695312 19.199219 22.835938 19.246094 C 12.042969 19.542969 12.042969 19.542969 9.390625 16.964844 C 7.84375 15.003906 6.058594 12.527344 6.058594 9.902344 Z M 6.058594 9.902344 "/>
<path style=" stroke:none;fill-rule:nonzero;fill:rgb(15.294118%,57.254902%,78.431373%);fill-opacity:1;" d="M 7.710938 26.214844 C 8.074219 26.410156 8.4375 26.597656 8.8125 26.792969 C 8.636719 27.097656 8.460938 27.402344 8.28125 27.714844 C 7.550781 29.519531 7.476562 31.101562 7.367188 33.058594 C 7.324219 33.738281 7.285156 34.425781 7.242188 35.128906 C 7.214844 35.644531 7.1875 36.164062 7.160156 36.699219 C 7.601562 36.253906 8.046875 35.8125 8.5 35.347656 C 12.875 31.570312 17.863281 31.804688 23.269531 32.039062 C 23.957031 32.050781 24.648438 32.0625 25.359375 32.074219 C 30.359375 32.261719 30.359375 32.261719 32.457031 33.839844 C 33.019531 34.675781 33.019531 34.675781 33.59375 35.53125 C 34.195312 36.253906 34.800781 36.960938 35.410156 37.667969 C 36.042969 38.4375 36.679688 39.207031 37.3125 39.980469 C 37.636719 40.363281 37.960938 40.753906 38.292969 41.15625 C 38.605469 41.53125 38.914062 41.90625 39.230469 42.292969 C 39.648438 42.796875 39.648438 42.796875 40.078125 43.316406 C 40.753906 44.273438 40.753906 44.273438 41.304688 46.019531 C 32.121094 47.226562 32.121094 47.226562 29.164062 45.277344 C 26.671875 42.863281 24.855469 39.84375 23.070312 36.839844 C 22.105469 35.378906 21.300781 34.472656 19.652344 34.027344 C 18.417969 33.878906 17.214844 33.792969 15.972656 33.785156 C 15.976562 34.3125 15.976562 34.3125 15.980469 34.847656 C 15.992188 36.421875 16 37.996094 16.003906 39.574219 C 16.011719 40.125 16.015625 40.675781 16.019531 41.246094 C 16.023438 42.027344 16.023438 42.027344 16.023438 42.832031 C 16.027344 43.558594 16.027344 43.558594 16.035156 44.300781 C 15.972656 45.441406 15.972656 45.441406 15.421875 46.019531 C 13.945312 46.078125 12.488281 46.101562 11.015625 46.089844 C 10.394531 46.097656 10.394531 46.097656 9.761719 46.101562 C 6.679688 46.097656 6.679688 46.097656 6.058594 45.441406 C 5.925781 43.058594 5.933594 40.683594 5.925781 38.300781 C 5.921875 37.113281 5.902344 35.917969 5.886719 34.722656 C 5.882812 33.972656 5.878906 33.222656 5.878906 32.441406 C 5.871094 31.753906 5.867188 31.058594 5.863281 30.351562 C 6.074219 28.40625 6.464844 27.621094 7.710938 26.214844 Z M 7.710938 26.214844 "/>
<path style=" stroke:none;fill-rule:nonzero;fill:rgb(94.509804%,59.215686%,6.666667%);fill-opacity:1;" d="M 6.058594 9.902344 C 9.113281 9.863281 12.171875 9.824219 15.226562 9.808594 C 16.265625 9.796875 17.304688 9.785156 18.34375 9.773438 C 19.839844 9.75 21.339844 9.738281 22.835938 9.730469 C 23.296875 9.722656 23.757812 9.714844 24.230469 9.703125 C 27.773438 9.703125 30.917969 10.261719 33.726562 12.738281 C 36.8125 16.753906 37.640625 19.3125 37.449219 24.46875 C 35.796875 23.882812 35.796875 23.882812 34.972656 22.535156 C 32.878906 20.15625 30.5 19.363281 27.535156 18.636719 C 24.847656 18.550781 22.195312 18.777344 19.515625 18.964844 C 11.761719 19.289062 11.761719 19.289062 9.300781 17.003906 C 7.710938 15.035156 6.058594 12.574219 6.058594 9.902344 Z M 6.058594 9.902344 "/>
<path style=" stroke:none;fill-rule:nonzero;fill:rgb(98.823529%,80.392157%,3.137255%);fill-opacity:1;" d="M 7.710938 11.066406 C 10.621094 11.027344 13.53125 10.992188 16.441406 10.972656 C 17.429688 10.964844 18.417969 10.949219 19.40625 10.933594 C 20.832031 10.917969 22.257812 10.902344 23.683594 10.898438 C 24.339844 10.878906 24.339844 10.878906 25.011719 10.871094 C 28.507812 10.871094 31.097656 11.566406 33.835938 14.015625 C 34.695312 15.144531 34.695312 15.144531 34.695312 16.3125 C 29.347656 16.324219 24.003906 16.3125 18.65625 16.199219 C 17.949219 16.195312 17.238281 16.195312 16.507812 16.191406 C 15.832031 16.171875 15.152344 16.160156 14.453125 16.144531 C 13.84375 16.128906 13.234375 16.121094 12.609375 16.113281 C 10.519531 15.609375 10 14.644531 8.8125 12.816406 C 8.449219 12.621094 8.085938 12.433594 7.710938 12.234375 C 7.710938 11.847656 7.710938 11.464844 7.710938 11.066406 Z M 7.710938 11.066406 "/>
<path style=" stroke:none;fill-rule:nonzero;fill:rgb(7.058824%,60%,84.705882%);fill-opacity:1;" d="M 29.1875 34.949219 C 32.933594 34.992188 32.933594 34.992188 34.621094 36.375 C 35.609375 37.480469 36.519531 38.628906 37.414062 39.832031 C 37.730469 40.230469 38.046875 40.628906 38.375 41.039062 C 40.65625 43.964844 40.65625 43.964844 41.304688 46.019531 C 31.550781 46.78125 31.550781 46.78125 28.738281 45.082031 C 27.753906 43.886719 27.074219 42.792969 26.433594 41.363281 C 26.171875 40.828125 25.914062 40.300781 25.644531 39.753906 C 25.332031 38.449219 25.332031 38.449219 25.332031 36.117188 C 26.605469 36.117188 27.878906 36.117188 29.1875 36.117188 C 29.1875 35.730469 29.1875 35.347656 29.1875 34.949219 Z M 29.1875 34.949219 "/>
<path style=" stroke:none;fill-rule:nonzero;fill:rgb(7.843137%,7.843137%,7.843137%);fill-opacity:1;" d="M 46.8125 20.972656 C 48.144531 20.941406 49.472656 20.917969 50.804688 20.902344 C 51.179688 20.886719 51.554688 20.878906 51.941406 20.871094 C 53.996094 20.847656 55.554688 20.882812 57.273438 22.136719 C 58.402344 23.671875 58.375 24.496094 58.308594 26.464844 C 57.789062 28.699219 57.09375 29.800781 55.625 31.457031 C 56.214844 32.308594 56.8125 33.160156 57.414062 34.003906 C 57.910156 34.714844 57.910156 34.714844 58.417969 35.4375 C 59.460938 36.679688 60.238281 37.246094 61.679688 37.863281 C 61.679688 38.058594 61.679688 38.25 61.679688 38.449219 C 60.117188 38.761719 59.332031 38.886719 57.824219 38.449219 C 56.148438 36.878906 54.816406 35.050781 53.421875 33.207031 C 52.527344 32.203125 51.601562 31.246094 50.667969 30.292969 C 50.667969 32.597656 50.667969 34.902344 50.667969 37.285156 C 51.210938 37.476562 51.757812 37.664062 52.320312 37.863281 C 52.320312 38.058594 52.320312 38.25 52.320312 38.449219 C 50.5 38.449219 48.683594 38.449219 46.8125 38.449219 C 46.992188 38.0625 47.175781 37.675781 47.363281 37.285156 C 47.726562 37.285156 48.089844 37.285156 48.464844 37.285156 C 48.464844 32.285156 48.464844 27.285156 48.464844 22.136719 C 47.917969 22.136719 47.375 22.136719 46.8125 22.136719 C 46.8125 21.75 46.8125 21.371094 46.8125 20.972656 Z M 50.667969 22.714844 C 50.667969 25.027344 50.667969 27.332031 50.667969 29.707031 C 53.429688 29.519531 53.429688 29.519531 55.625 27.960938 C 55.808594 25.921875 55.808594 25.921875 55.625 23.882812 C 54.546875 22.476562 54.546875 22.476562 52.523438 22.644531 C 51.605469 22.683594 51.605469 22.683594 50.667969 22.714844 Z M 50.667969 22.714844 "/>
<path style=" stroke:none;fill-rule:nonzero;fill:rgb(5.882353%,5.882353%,5.882353%);fill-opacity:1;" d="M 121.710938 23.300781 C 123.347656 23.300781 124.980469 23.300781 126.667969 23.300781 C 126.667969 23.683594 126.667969 24.070312 126.667969 24.46875 C 126.121094 24.753906 126.121094 24.753906 125.566406 25.050781 C 125.308594 26.285156 125.308594 26.285156 125.222656 27.707031 C 125.152344 28.558594 125.085938 29.414062 125.015625 30.292969 C 127.558594 30.292969 130.101562 30.292969 132.726562 30.292969 C 132.726562 28.371094 132.726562 26.449219 132.726562 24.46875 C 132.179688 24.277344 131.632812 24.082031 131.074219 23.882812 C 131.074219 23.691406 131.074219 23.503906 131.074219 23.300781 C 132.890625 23.300781 134.707031 23.300781 136.578125 23.300781 C 136.578125 23.683594 136.578125 24.070312 136.578125 24.46875 C 136.214844 24.46875 135.851562 24.46875 135.476562 24.46875 C 135.554688 26.578125 135.636719 28.6875 135.71875 30.800781 C 135.742188 31.402344 135.761719 32.003906 135.785156 32.625 C 135.808594 33.199219 135.832031 33.773438 135.855469 34.363281 C 135.875 34.894531 135.894531 35.425781 135.914062 35.972656 C 135.953125 37.300781 135.953125 37.300781 136.578125 38.449219 C 134.761719 38.449219 132.945312 38.449219 131.074219 38.449219 C 131.4375 38.0625 131.800781 37.675781 132.175781 37.285156 C 132.425781 36 132.425781 36 132.519531 34.589844 C 132.621094 33.328125 132.621094 33.328125 132.726562 32.039062 C 130.179688 32.039062 127.636719 32.039062 125.015625 32.039062 C 125.015625 33.769531 125.015625 35.503906 125.015625 37.285156 C 125.558594 37.476562 126.105469 37.664062 126.667969 37.863281 C 126.667969 38.058594 126.667969 38.25 126.667969 38.449219 C 124.847656 38.449219 123.03125 38.449219 121.160156 38.449219 C 121.523438 38.0625 121.886719 37.675781 122.261719 37.285156 C 122.464844 35.929688 122.464844 35.929688 122.488281 34.363281 C 122.511719 33.792969 122.53125 33.214844 122.554688 32.625 C 122.570312 32.019531 122.585938 31.417969 122.605469 30.800781 C 122.625 30.191406 122.648438 29.589844 122.667969 28.964844 C 122.722656 27.464844 122.769531 25.964844 122.8125 24.46875 C 122.449219 24.46875 122.085938 24.46875 121.710938 24.46875 C 121.710938 24.082031 121.710938 23.695312 121.710938 23.300781 Z M 121.710938 23.300781 "/>
<path style=" stroke:none;fill-rule:nonzero;fill:rgb(4.705882%,36.862745%,63.137255%);fill-opacity:1;" d="M 25.882812 18.058594 C 30.121094 18.730469 32.933594 19.6875 36.039062 22.972656 C 36.898438 24.46875 36.898438 24.46875 36.96875 25.851562 C 36.0625 28.082031 34.609375 29.699219 33.042969 31.457031 C 32.679688 31.265625 32.316406 31.074219 31.941406 30.871094 C 31.941406 30.300781 31.941406 29.71875 31.941406 29.128906 C 30.667969 28.738281 29.398438 28.359375 28.085938 27.960938 C 27.8125 26.808594 27.8125 26.808594 27.535156 25.628906 C 21.355469 25.824219 15.179688 26.015625 8.8125 26.214844 C 10.757812 24.839844 11.648438 24.890625 13.960938 24.847656 C 14.644531 24.832031 15.332031 24.816406 16.035156 24.796875 C 17.488281 24.769531 18.9375 24.746094 20.386719 24.722656 C 21.414062 24.691406 21.414062 24.691406 22.460938 24.667969 C 23.089844 24.65625 23.722656 24.644531 24.371094 24.632812 C 25.960938 24.628906 25.960938 24.628906 26.984375 23.300781 C 27.199219 21.152344 26.832031 19.925781 25.882812 18.058594 Z M 25.882812 18.058594 "/>
<path style=" stroke:none;fill-rule:nonzero;fill:rgb(6.666667%,6.666667%,6.666667%);fill-opacity:1;" d="M 159.160156 20.390625 C 160.515625 22.144531 161.328125 23.839844 162.121094 25.945312 C 162.355469 26.558594 162.589844 27.175781 162.832031 27.808594 C 163.320312 29.105469 163.808594 30.394531 164.296875 31.6875 C 164.53125 32.300781 164.769531 32.917969 165.011719 33.550781 C 165.328125 34.394531 165.328125 34.394531 165.652344 35.253906 C 166.3125 36.878906 166.3125 36.878906 167.972656 38.449219 C 166.152344 38.449219 164.335938 38.449219 162.464844 38.449219 C 162.644531 37.871094 162.828125 37.292969 163.015625 36.699219 C 162.683594 35.324219 162.320312 33.964844 161.914062 32.621094 C 159.1875 32.910156 159.1875 32.910156 156.40625 33.207031 C 155.40625 35.847656 155.40625 35.847656 155.855469 38.449219 C 154.039062 38.449219 152.21875 38.449219 150.347656 38.449219 C 151.074219 38.0625 151.800781 37.675781 152.550781 37.285156 C 153.089844 36.214844 153.089844 36.214844 153.371094 34.949219 C 154.214844 31.941406 155.3125 29.097656 156.476562 26.214844 C 156.671875 25.714844 156.871094 25.214844 157.074219 24.703125 C 158.535156 21.046875 158.535156 21.046875 159.160156 20.390625 Z M 158.609375 25.628906 C 158.0625 27.550781 157.519531 29.480469 156.957031 31.457031 C 158.410156 31.457031 159.863281 31.457031 161.363281 31.457031 C 160.816406 29.53125 160.273438 27.609375 159.710938 25.628906 C 159.347656 25.628906 158.984375 25.628906 158.609375 25.628906 Z M 158.609375 25.628906 "/>
<path style=" stroke:none;fill-rule:nonzero;fill:rgb(5.098039%,5.098039%,5.098039%);fill-opacity:1;" d="M 95.824219 23.300781 C 96.371094 23.300781 96.917969 23.300781 97.476562 23.300781 C 98.398438 25.410156 99.316406 27.519531 100.230469 29.636719 C 100.496094 30.238281 100.757812 30.839844 101.027344 31.457031 C 101.277344 32.035156 101.523438 32.605469 101.78125 33.199219 C 102.125 33.996094 102.125 33.996094 102.480469 34.808594 C 102.984375 36.117188 102.984375 36.117188 102.984375 37.285156 C 103.53125 37.476562 104.074219 37.664062 104.636719 37.863281 C 104.636719 38.058594 104.636719 38.25 104.636719 38.449219 C 102.820312 38.449219 101.003906 38.449219 99.128906 38.449219 C 99.492188 38.253906 99.855469 38.0625 100.230469 37.863281 C 99.867188 36.707031 99.503906 35.554688 99.128906 34.371094 C 97.3125 34.175781 95.496094 33.984375 93.625 33.785156 C 93.0625 36.175781 93.0625 36.175781 93.625 38.449219 C 91.988281 38.449219 90.351562 38.449219 88.667969 38.449219 C 89.210938 37.871094 89.757812 37.292969 90.320312 36.699219 C 90.980469 35.449219 90.980469 35.449219 91.546875 34.042969 C 91.761719 33.527344 91.976562 33.019531 92.199219 32.488281 C 92.417969 31.957031 92.640625 31.425781 92.867188 30.871094 C 93.089844 30.339844 93.316406 29.808594 93.546875 29.253906 C 94.371094 27.285156 95.179688 25.347656 95.824219 23.300781 Z M 96.375 27.378906 C 95.164062 29.597656 95.164062 29.597656 94.726562 32.039062 C 95.996094 32.039062 97.269531 32.039062 98.578125 32.039062 C 98.035156 30.496094 97.488281 28.964844 96.925781 27.378906 C 96.746094 27.378906 96.5625 27.378906 96.375 27.378906 Z M 96.375 27.378906 "/>
<path style=" stroke:none;fill-rule:nonzero;fill:rgb(3.529412%,3.529412%,3.529412%);fill-opacity:1;" d="M 118.957031 24.46875 C 119.179688 25.816406 119.367188 27.183594 119.507812 28.542969 C 118.960938 28.355469 118.417969 28.160156 117.855469 27.960938 C 117.476562 26.761719 117.476562 26.761719 117.304688 25.628906 C 114.613281 24.722656 111.734375 24.722656 109.042969 25.628906 C 107.96875 28.847656 107.765625 31.019531 108.492188 34.371094 C 109.191406 35.933594 109.191406 35.933594 110.695312 36.699219 C 112.566406 36.980469 114.34375 37.066406 116.203125 36.699219 C 117.765625 35.402344 118.304688 34.003906 118.957031 32.039062 C 119.320312 32.039062 119.683594 32.039062 120.058594 32.039062 C 120.03125 33.785156 120 35.0625 119.507812 36.699219 C 117.066406 38.847656 115.027344 39.386719 111.875 39.210938 C 109.292969 38.8125 107.835938 37.785156 106.082031 35.789062 C 104.878906 33.09375 104.617188 30.890625 105.1875 27.960938 C 106.410156 25.472656 107.914062 24.175781 110.28125 22.972656 C 113.246094 22.605469 116.261719 23.039062 118.957031 24.46875 Z M 118.957031 24.46875 "/>
<path style=" stroke:none;fill-rule:nonzero;fill:rgb(1.960784%,1.960784%,1.960784%);fill-opacity:1;" d="M 72.144531 22.714844 C 72.144531 23.871094 72.144531 25.027344 72.144531 26.214844 C 71.78125 26.214844 71.417969 26.214844 71.042969 26.214844 C 71.042969 25.828125 71.042969 25.449219 71.042969 25.050781 C 69.40625 25.050781 67.773438 25.050781 66.085938 25.050781 C 66.085938 26.777344 66.085938 28.503906 66.085938 30.292969 C 67.359375 30.292969 68.632812 30.292969 69.941406 30.292969 C 69.941406 29.90625 69.941406 29.519531 69.941406 29.128906 C 70.304688 29.128906 70.667969 29.128906 71.042969 29.128906 C 71.226562 30.28125 71.40625 31.433594 71.59375 32.621094 C 71.050781 32.8125 70.503906 33.003906 69.941406 33.207031 C 69.941406 32.816406 69.941406 32.4375 69.941406 32.039062 C 68.667969 32.039062 67.398438 32.039062 66.085938 32.039062 C 66.085938 33.769531 66.085938 35.503906 66.085938 37.285156 C 66.984375 37.128906 67.878906 36.972656 68.773438 36.808594 C 69.269531 36.722656 69.769531 36.632812 70.28125 36.542969 C 71.785156 36.214844 71.785156 36.214844 72.695312 34.371094 C 73.058594 34.558594 73.421875 34.753906 73.796875 34.949219 C 73.433594 36.105469 73.070312 37.261719 72.695312 38.449219 C 69.242188 38.449219 65.789062 38.449219 62.230469 38.449219 C 62.59375 38.0625 62.957031 37.675781 63.332031 37.285156 C 63.539062 35.929688 63.539062 35.929688 63.5625 34.363281 C 63.582031 33.792969 63.605469 33.214844 63.625 32.625 C 63.644531 32.019531 63.660156 31.417969 63.675781 30.800781 C 63.699219 30.191406 63.71875 29.589844 63.742188 28.964844 C 63.792969 27.464844 63.839844 25.964844 63.882812 24.46875 C 63.339844 24.46875 62.792969 24.46875 62.230469 24.46875 C 62.230469 24.082031 62.230469 23.695312 62.230469 23.300781 C 63.78125 23.203125 65.328125 23.109375 66.878906 23.011719 C 67.320312 22.980469 67.761719 22.957031 68.21875 22.925781 C 71.53125 22.714844 71.53125 22.714844 72.144531 22.714844 Z M 72.144531 22.714844 "/>
<path style=" stroke:none;fill-rule:nonzero;fill:rgb(4.705882%,4.705882%,4.705882%);fill-opacity:1;" d="M 73.246094 23.300781 C 75.0625 23.300781 76.882812 23.300781 78.753906 23.300781 C 78.753906 23.683594 78.753906 24.070312 78.753906 24.46875 C 78.390625 24.46875 78.027344 24.46875 77.652344 24.46875 C 78.925781 27.539062 80.195312 30.613281 81.507812 33.785156 C 84.269531 28.792969 84.269531 28.792969 84.261719 23.300781 C 86.078125 23.300781 87.894531 23.300781 89.769531 23.300781 C 89.464844 23.648438 89.160156 23.988281 88.847656 24.347656 C 87.042969 26.976562 85.910156 29.835938 84.675781 32.800781 C 84.421875 33.402344 84.167969 34.003906 83.90625 34.617188 C 83.289062 36.089844 82.671875 37.558594 82.058594 39.027344 C 81.695312 39.027344 81.332031 39.027344 80.957031 39.027344 C 80.695312 38.394531 80.695312 38.394531 80.425781 37.757812 C 79.632812 35.859375 78.832031 33.964844 78.03125 32.074219 C 77.753906 31.410156 77.480469 30.75 77.195312 30.070312 C 76.929688 29.441406 76.660156 28.808594 76.386719 28.167969 C 76.140625 27.582031 75.894531 27 75.640625 26.394531 C 74.984375 24.867188 74.984375 24.867188 73.246094 24.46875 C 73.246094 24.082031 73.246094 23.695312 73.246094 23.300781 Z M 73.246094 23.300781 "/>
<path style=" stroke:none;fill-rule:nonzero;fill:rgb(4.313725%,61.176471%,87.843137%);fill-opacity:1;" d="M 11.566406 37.285156 C 12.835938 37.285156 14.109375 37.285156 15.421875 37.285156 C 15.238281 39.777344 15.058594 42.28125 14.871094 44.855469 C 13.710938 44.964844 12.550781 45.070312 11.359375 45.183594 C 10.707031 45.238281 10.054688 45.304688 9.382812 45.371094 C 7.710938 45.441406 7.710938 45.441406 6.609375 44.855469 C 6.609375 43.699219 6.609375 42.542969 6.609375 41.363281 C 7.152344 41.167969 7.699219 40.972656 8.261719 40.777344 C 8.261719 40.199219 8.261719 39.621094 8.261719 39.027344 C 9.351562 38.835938 10.441406 38.644531 11.566406 38.449219 C 11.566406 38.0625 11.566406 37.675781 11.566406 37.285156 Z M 11.566406 37.285156 "/>
<path style=" stroke:none;fill-rule:nonzero;fill:rgb(91.372549%,47.843137%,9.411765%);fill-opacity:1;" d="M 35.246094 16.3125 C 35.609375 16.3125 35.972656 16.3125 36.347656 16.3125 C 37.667969 19.019531 37.558594 21.503906 37.449219 24.46875 C 35.796875 23.882812 35.796875 23.882812 34.972656 22.535156 C 32.503906 19.730469 29.152344 18.796875 25.597656 18.457031 C 23.542969 18.410156 21.5 18.441406 19.449219 18.496094 C 18.738281 18.503906 18.03125 18.515625 17.300781 18.527344 C 15.574219 18.558594 13.84375 18.589844 12.117188 18.636719 C 12.117188 18.449219 12.117188 18.257812 12.117188 18.058594 C 14.890625 17.582031 17.609375 17.367188 20.425781 17.316406 C 21.261719 17.292969 22.101562 17.269531 22.9375 17.246094 C 24.246094 17.214844 25.558594 17.183594 26.867188 17.15625 C 28.136719 17.121094 29.410156 17.089844 30.679688 17.058594 C 31.074219 17.050781 31.46875 17.039062 31.878906 17.035156 C 33.71875 17.152344 33.71875 17.152344 35.246094 16.3125 Z M 35.246094 16.3125 "/>
<path style=" stroke:none;fill-rule:nonzero;fill:rgb(3.921569%,61.176471%,87.45098%);fill-opacity:1;" d="M 29.1875 34.949219 C 30.460938 35.144531 31.734375 35.339844 33.042969 35.53125 C 33.796875 37.433594 34.222656 38.621094 33.835938 40.667969 C 33.042969 41.941406 33.042969 41.941406 31.734375 42.449219 C 29.804688 42.550781 28.613281 42.425781 27.128906 41.058594 C 26.699219 40.519531 26.699219 40.519531 26.261719 39.980469 C 25.96875 39.621094 25.675781 39.269531 25.375 38.90625 C 25.179688 38.558594 24.984375 38.222656 24.78125 37.863281 C 24.964844 37.289062 25.144531 36.707031 25.332031 36.117188 C 26.605469 36.117188 27.878906 36.117188 29.1875 36.117188 C 29.1875 35.730469 29.1875 35.347656 29.1875 34.949219 Z M 29.1875 34.949219 "/>
<path style=" stroke:none;fill-rule:nonzero;fill:rgb(6.27451%,5.098039%,5.490196%);fill-opacity:1;" d="M 131.074219 23.300781 C 132.890625 23.300781 134.707031 23.300781 136.578125 23.300781 C 136.578125 23.683594 136.578125 24.070312 136.578125 24.46875 C 136.214844 24.46875 135.851562 24.46875 135.476562 24.46875 C 135.554688 26.578125 135.636719 28.6875 135.71875 30.800781 C 135.742188 31.402344 135.761719 32.003906 135.785156 32.625 C 135.820312 33.488281 135.820312 33.488281 135.855469 34.363281 C 135.875 34.894531 135.894531 35.425781 135.914062 35.972656 C 135.953125 37.300781 135.953125 37.300781 136.578125 38.449219 C 134.761719 38.449219 132.945312 38.449219 131.074219 38.449219 C 131.4375 38.0625 131.800781 37.675781 132.175781 37.285156 C 132.914062 33.089844 132.792969 28.714844 132.726562 24.46875 C 132.179688 24.277344 131.632812 24.082031 131.074219 23.882812 C 131.074219 23.691406 131.074219 23.503906 131.074219 23.300781 Z M 131.074219 23.300781 "/>
<path style=" stroke:none;fill-rule:nonzero;fill:rgb(5.098039%,4.705882%,5.098039%);fill-opacity:1;" d="M 138.78125 23.300781 C 140.601562 23.300781 142.417969 23.300781 144.289062 23.300781 C 144.289062 23.683594 144.289062 24.070312 144.289062 24.46875 C 143.746094 24.753906 143.746094 24.753906 143.1875 25.050781 C 143.007812 29.085938 142.824219 33.121094 142.636719 37.285156 C 143.183594 37.476562 143.726562 37.664062 144.289062 37.863281 C 144.289062 38.058594 144.289062 38.25 144.289062 38.449219 C 142.472656 38.449219 140.65625 38.449219 138.78125 38.449219 C 138.964844 38.0625 139.144531 37.675781 139.332031 37.285156 C 139.695312 37.285156 140.058594 37.285156 140.433594 37.285156 C 140.253906 33.246094 140.070312 29.207031 139.882812 25.050781 C 139.519531 24.855469 139.15625 24.660156 138.78125 24.46875 C 138.78125 24.082031 138.78125 23.695312 138.78125 23.300781 Z M 138.78125 23.300781 "/>
<path style=" stroke:none;fill-rule:nonzero;fill:rgb(5.098039%,5.098039%,5.098039%);fill-opacity:1;" d="M 168.523438 23.300781 C 170.339844 23.300781 172.15625 23.300781 174.027344 23.300781 C 174.027344 23.683594 174.027344 24.070312 174.027344 24.46875 C 173.484375 24.46875 172.9375 24.46875 172.375 24.46875 C 172.375 28.691406 172.375 32.925781 172.375 37.285156 C 172.921875 37.476562 173.46875 37.664062 174.027344 37.863281 C 174.027344 38.058594 174.027344 38.25 174.027344 38.449219 C 172.210938 38.449219 170.394531 38.449219 168.523438 38.449219 C 168.886719 38.0625 169.25 37.675781 169.625 37.285156 C 169.777344 35.980469 169.777344 35.980469 169.730469 34.496094 C 169.726562 33.941406 169.722656 33.394531 169.71875 32.832031 C 169.707031 31.96875 169.707031 31.96875 169.691406 31.089844 C 169.6875 30.515625 169.683594 29.933594 169.675781 29.339844 C 169.664062 27.910156 169.644531 26.480469 169.625 25.050781 C 169.257812 24.855469 168.894531 24.660156 168.523438 24.46875 C 168.523438 24.082031 168.523438 23.695312 168.523438 23.300781 Z M 168.523438 23.300781 "/>
<path style=" stroke:none;fill-rule:nonzero;fill:rgb(98.431373%,73.72549%,2.352941%);fill-opacity:1;" d="M 10.464844 13.980469 C 18.097656 13.980469 25.730469 13.980469 33.59375 13.980469 C 33.957031 14.746094 34.320312 15.515625 34.695312 16.3125 C 29.292969 16.347656 23.914062 16.238281 18.519531 16.019531 C 17.785156 15.988281 17.050781 15.960938 16.316406 15.9375 C 14.546875 15.867188 12.78125 15.796875 11.015625 15.726562 C 10.832031 15.152344 10.652344 14.574219 10.464844 13.980469 Z M 10.464844 13.980469 "/>
<path style=" stroke:none;fill-rule:nonzero;fill:rgb(3.921569%,28.627451%,52.54902%);fill-opacity:1;" d="M 25.882812 18.058594 C 30.121094 18.730469 32.933594 19.6875 36.039062 22.972656 C 36.898438 24.46875 36.898438 24.46875 36.863281 25.996094 C 36.328125 27.425781 35.8125 28.152344 34.695312 29.128906 C 34.695312 28.167969 34.695312 27.207031 34.695312 26.214844 C 34.105469 25.875 33.515625 25.542969 32.90625 25.195312 C 31.226562 24.183594 29.933594 23.089844 28.636719 21.550781 C 28.09375 21.84375 28.09375 21.84375 27.535156 22.136719 C 25.882812 19.371094 25.882812 19.371094 25.882812 18.058594 Z M 25.882812 18.058594 "/>
<path style=" stroke:none;fill-rule:nonzero;fill:rgb(1.568627%,42.352941%,70.980392%);fill-opacity:1;" d="M 15.421875 33.207031 C 15.421875 34.546875 15.421875 35.894531 15.421875 37.285156 C 14.148438 37.285156 12.875 37.285156 11.566406 37.285156 C 11.566406 37.664062 11.566406 38.050781 11.566406 38.449219 C 10.476562 38.636719 9.382812 38.832031 8.261719 39.027344 C 8.261719 39.605469 8.261719 40.183594 8.261719 40.777344 C 7.714844 40.96875 7.171875 41.160156 6.609375 41.363281 C 6.332031 38.917969 6.5 38.035156 7.847656 35.972656 C 10.402344 33.269531 11.800781 33.058594 15.421875 33.207031 Z M 15.421875 33.207031 "/>
<path style=" stroke:none;fill-rule:nonzero;fill:rgb(92.54902%,74.901961%,22.745098%);fill-opacity:1;" d="M 6.058594 9.902344 C 9.113281 9.863281 12.171875 9.824219 15.226562 9.808594 C 16.265625 9.796875 17.304688 9.785156 18.34375 9.773438 C 19.839844 9.75 21.339844 9.738281 22.835938 9.730469 C 23.296875 9.722656 23.757812 9.714844 24.230469 9.703125 C 27.726562 9.703125 30.753906 10.300781 33.644531 12.542969 C 35.796875 15.019531 35.796875 15.019531 35.796875 16.3125 C 35.433594 16.3125 35.070312 16.3125 34.695312 16.3125 C 34.390625 15.867188 34.082031 15.421875 33.765625 14.964844 C 32.03125 12.832031 30.089844 11.863281 27.484375 11.480469 C 26.214844 11.394531 24.957031 11.363281 23.683594 11.347656 C 23.222656 11.34375 22.765625 11.332031 22.292969 11.320312 C 20.839844 11.292969 19.386719 11.269531 17.933594 11.25 C 16.941406 11.230469 15.953125 11.207031 14.960938 11.191406 C 12.542969 11.136719 10.128906 11.105469 7.710938 11.066406 C 7.527344 11.457031 7.347656 11.835938 7.160156 12.234375 C 6.796875 11.464844 6.433594 10.691406 6.058594 9.902344 Z M 6.058594 9.902344 "/>
<path style=" stroke:none;fill-rule:nonzero;fill:rgb(4.313725%,41.960784%,67.058824%);fill-opacity:1;" d="M 31.941406 33.207031 C 32.734375 34.40625 32.734375 34.40625 33.042969 35.53125 C 31.769531 35.34375 30.5 35.152344 29.1875 34.949219 C 29.1875 35.339844 29.1875 35.71875 29.1875 36.117188 C 27.917969 36.308594 26.644531 36.496094 25.332031 36.699219 C 25.695312 37.851562 26.058594 39.003906 26.433594 40.195312 C 24.476562 38.644531 22.84375 37.121094 21.476562 34.949219 C 21.660156 34.378906 21.839844 33.796875 22.027344 33.207031 C 28.984375 32.339844 28.984375 32.339844 31.941406 33.207031 Z M 31.941406 33.207031 "/>
<path style=" stroke:none;fill-rule:nonzero;fill:rgb(6.666667%,6.666667%,6.666667%);fill-opacity:1;" d="M 65.535156 26.214844 C 65.71875 26.214844 65.898438 26.214844 66.085938 26.214844 C 66.085938 27.558594 66.085938 28.902344 66.085938 30.292969 C 67.359375 30.292969 68.632812 30.292969 69.941406 30.292969 C 69.941406 29.90625 69.941406 29.519531 69.941406 29.128906 C 70.304688 29.128906 70.667969 29.128906 71.042969 29.128906 C 71.226562 30.28125 71.40625 31.433594 71.59375 32.621094 C 71.050781 32.8125 70.503906 33.003906 69.941406 33.207031 C 69.941406 32.816406 69.941406 32.4375 69.941406 32.039062 C 68.667969 32.039062 67.398438 32.039062 66.085938 32.039062 C 66.085938 33.769531 66.085938 35.503906 66.085938 37.285156 C 66.984375 37.128906 67.878906 36.972656 68.773438 36.808594 C 69.269531 36.722656 69.769531 36.632812 70.28125 36.542969 C 71.785156 36.214844 71.785156 36.214844 72.695312 34.371094 C 73.058594 34.558594 73.421875 34.753906 73.796875 34.949219 C 73.433594 36.105469 73.070312 37.261719 72.695312 38.449219 C 69.242188 38.449219 65.789062 38.449219 62.230469 38.449219 C 62.957031 37.675781 63.6875 36.910156 64.433594 36.117188 C 64.433594 36.691406 64.433594 37.269531 64.433594 37.863281 C 64.796875 37.863281 65.160156 37.863281 65.535156 37.863281 C 65.535156 34.019531 65.535156 30.175781 65.535156 26.214844 Z M 65.535156 26.214844 "/>
<path style=" stroke:none;fill-rule:nonzero;fill:rgb(4.705882%,4.705882%,4.705882%);fill-opacity:1;" d="M 118.957031 32.039062 C 119.320312 32.039062 119.683594 32.039062 120.058594 32.039062 C 120.03125 33.785156 120 35.0625 119.507812 36.699219 C 117.066406 38.855469 115.03125 39.375 111.878906 39.222656 C 109.574219 38.847656 107.917969 37.839844 106.289062 36.117188 C 106.222656 34.589844 106.222656 34.589844 106.289062 33.207031 C 106.835938 33.011719 107.378906 32.816406 107.941406 32.621094 C 108.191406 33.1875 108.441406 33.75 108.699219 34.332031 C 109.40625 36.160156 109.40625 36.160156 110.695312 36.699219 C 111.601562 36.785156 112.507812 36.824219 113.414062 36.84375 C 113.898438 36.863281 114.378906 36.871094 114.875 36.890625 C 116.460938 36.660156 116.898438 36.28125 117.855469 34.949219 C 118.511719 33.441406 118.511719 33.441406 118.957031 32.039062 Z M 118.957031 32.039062 "/>
<path style=" stroke:none;fill-rule:nonzero;fill:rgb(4.705882%,4.705882%,4.705882%);fill-opacity:1;" d="M 46.8125 20.972656 C 47.730469 20.949219 48.648438 20.949219 49.566406 20.972656 C 50.117188 21.550781 50.117188 21.550781 50.179688 23.113281 C 50.175781 23.792969 50.171875 24.472656 50.167969 25.175781 C 50.167969 25.910156 50.167969 26.648438 50.164062 27.402344 C 50.160156 28.183594 50.15625 28.964844 50.148438 29.746094 C 50.148438 30.527344 50.144531 31.3125 50.144531 32.089844 C 50.136719 34.019531 50.128906 35.941406 50.117188 37.863281 C 49.753906 37.863281 49.390625 37.863281 49.015625 37.863281 C 48.441406 36.046875 48.402344 34.792969 48.410156 32.886719 C 48.414062 31.949219 48.414062 31.949219 48.414062 30.996094 C 48.421875 30.339844 48.425781 29.691406 48.429688 29.015625 C 48.433594 28.359375 48.433594 27.699219 48.4375 27.019531 C 48.445312 25.394531 48.453125 23.765625 48.464844 22.136719 C 47.917969 22.136719 47.375 22.136719 46.8125 22.136719 C 46.8125 21.75 46.8125 21.371094 46.8125 20.972656 Z M 46.8125 20.972656 "/>
<path style=" stroke:none;fill-rule:nonzero;fill:rgb(3.529412%,3.529412%,3.529412%);fill-opacity:1;" d="M 160.8125 27.960938 C 161.175781 27.960938 161.539062 27.960938 161.914062 27.960938 C 162.0625 28.621094 162.207031 29.285156 162.359375 29.964844 C 162.578125 30.652344 162.792969 31.335938 163.015625 32.039062 C 163.558594 32.230469 164.105469 32.425781 164.667969 32.621094 C 165.234375 33.972656 165.785156 35.332031 166.320312 36.699219 C 166.863281 37.277344 167.410156 37.851562 167.972656 38.449219 C 166.152344 38.449219 164.335938 38.449219 162.464844 38.449219 C 162.644531 37.871094 162.828125 37.292969 163.015625 36.699219 C 162.703125 35.175781 162.355469 33.714844 161.949219 32.222656 C 161.839844 31.808594 161.730469 31.402344 161.621094 30.984375 C 161.355469 29.976562 161.085938 28.96875 160.8125 27.960938 Z M 160.8125 27.960938 "/>
<path style=" stroke:none;fill-rule:nonzero;fill:rgb(9.019608%,50.588235%,73.72549%);fill-opacity:1;" d="M 28.085938 23.300781 C 28.449219 23.683594 28.8125 24.070312 29.1875 24.46875 C 29.007812 25.042969 28.824219 25.617188 28.636719 26.214844 C 29.546875 26.214844 30.453125 26.214844 31.390625 26.214844 C 31.390625 26.980469 31.390625 27.75 31.390625 28.542969 C 30.484375 28.542969 29.574219 28.542969 28.636719 28.542969 C 28.273438 27.582031 27.910156 26.621094 27.535156 25.628906 C 21.355469 25.824219 15.179688 26.015625 8.8125 26.214844 C 10.8125 24.800781 11.816406 24.886719 14.199219 24.847656 C 14.5625 24.839844 14.925781 24.832031 15.296875 24.820312 C 16.84375 24.785156 18.386719 24.761719 19.933594 24.738281 C 21.0625 24.722656 22.191406 24.691406 23.320312 24.667969 C 23.996094 24.65625 24.671875 24.644531 25.371094 24.632812 C 27.050781 24.644531 27.050781 24.644531 28.085938 23.300781 Z M 28.085938 23.300781 "/>
<path style=" stroke:none;fill-rule:nonzero;fill:rgb(18.431373%,56.470588%,73.72549%);fill-opacity:1;" d="M 7.710938 26.214844 C 8.074219 26.410156 8.4375 26.597656 8.8125 26.792969 C 8.636719 27.105469 8.460938 27.417969 8.28125 27.730469 C 7.574219 29.460938 7.480469 30.914062 7.363281 32.792969 C 7.316406 33.496094 7.269531 34.199219 7.222656 34.921875 C 7.179688 35.652344 7.136719 36.378906 7.089844 37.136719 C 7.042969 37.875 6.996094 38.613281 6.945312 39.375 C 6.828125 41.203125 6.71875 43.03125 6.609375 44.855469 C 9.515625 45.046875 12.425781 45.238281 15.421875 45.441406 C 15.421875 45.628906 15.421875 45.820312 15.421875 46.019531 C 13.964844 46.035156 12.507812 46.050781 11.050781 46.054688 C 10.632812 46.058594 10.21875 46.066406 9.789062 46.074219 C 8.730469 46.078125 7.667969 46.050781 6.609375 46.019531 C 5.171875 44.503906 5.929688 40.363281 5.925781 38.300781 C 5.921875 37.113281 5.902344 35.917969 5.886719 34.722656 C 5.882812 33.972656 5.878906 33.222656 5.878906 32.441406 C 5.871094 31.753906 5.867188 31.058594 5.863281 30.351562 C 6.074219 28.40625 6.464844 27.621094 7.710938 26.214844 Z M 7.710938 26.214844 "/>
<path style=" stroke:none;fill-rule:nonzero;fill:rgb(76.078431%,48.627451%,21.960784%);fill-opacity:1;" d="M 22.234375 17.367188 C 23.054688 17.355469 23.054688 17.355469 23.886719 17.34375 C 27.296875 17.339844 30.292969 17.722656 33.59375 18.636719 C 33.59375 19.21875 33.59375 19.792969 33.59375 20.390625 C 33.25 20.261719 32.90625 20.136719 32.554688 20.011719 C 28.132812 18.550781 24.050781 18.433594 19.449219 18.535156 C 18.386719 18.542969 18.386719 18.542969 17.300781 18.558594 C 15.574219 18.574219 13.84375 18.605469 12.117188 18.636719 C 12.117188 18.449219 12.117188 18.257812 12.117188 18.058594 C 15.496094 17.433594 18.808594 17.367188 22.234375 17.367188 Z M 22.234375 17.367188 "/>
<path style=" stroke:none;fill-rule:nonzero;fill:rgb(5.882353%,60%,84.705882%);fill-opacity:1;" d="M 11.566406 37.285156 C 12.835938 37.285156 14.109375 37.285156 15.421875 37.285156 C 13.671875 38.824219 11.804688 39.796875 9.75 40.800781 C 8.714844 41.296875 8.714844 41.296875 8.261719 42.519531 C 8.625 42.519531 8.988281 42.519531 9.363281 42.519531 C 9.363281 43.488281 9.363281 44.449219 9.363281 45.441406 C 8.453125 45.246094 7.546875 45.050781 6.609375 44.855469 C 6.609375 43.699219 6.609375 42.542969 6.609375 41.363281 C 7.152344 41.167969 7.699219 40.972656 8.261719 40.777344 C 8.261719 40.199219 8.261719 39.621094 8.261719 39.027344 C 9.351562 38.835938 10.441406 38.644531 11.566406 38.449219 C 11.566406 38.0625 11.566406 37.675781 11.566406 37.285156 Z M 11.566406 37.285156 "/>
<path style=" stroke:none;fill-rule:nonzero;fill:rgb(3.529412%,3.529412%,3.529412%);fill-opacity:1;" d="M 55.074219 22.136719 C 56.433594 22.710938 56.433594 22.710938 57.824219 23.300781 C 58.273438 25.160156 58.273438 25.160156 58.375 27.378906 C 57.171875 29.128906 57.171875 29.128906 55.625 30.292969 C 54.351562 30.183594 54.351562 30.183594 53.421875 29.707031 C 53.785156 29.707031 54.148438 29.707031 54.523438 29.707031 C 55.074219 27.957031 55.128906 26.769531 55.105469 24.9375 C 55.101562 24.417969 55.097656 23.886719 55.09375 23.347656 C 55.085938 22.949219 55.078125 22.546875 55.074219 22.136719 Z M 55.074219 22.136719 "/>
<path style=" stroke:none;fill-rule:nonzero;fill:rgb(97.254902%,67.45098%,4.705882%);fill-opacity:1;" d="M 10.464844 14.558594 C 18.277344 14.558594 26.09375 14.558594 34.144531 14.558594 C 34.417969 15.425781 34.417969 15.425781 34.695312 16.3125 C 29.292969 16.347656 23.914062 16.238281 18.519531 16.019531 C 17.785156 15.988281 17.050781 15.960938 16.316406 15.9375 C 14.546875 15.867188 12.78125 15.796875 11.015625 15.726562 C 10.832031 15.347656 10.652344 14.957031 10.464844 14.558594 Z M 10.464844 14.558594 "/>
<path style=" stroke:none;fill-rule:nonzero;fill:rgb(5.882353%,5.882353%,5.882353%);fill-opacity:1;" d="M 115.203125 23.226562 C 115.914062 23.390625 115.914062 23.390625 116.640625 23.550781 C 117.855469 23.882812 117.855469 23.882812 118.957031 24.46875 C 119.179688 25.816406 119.367188 27.183594 119.507812 28.542969 C 118.960938 28.355469 118.417969 28.160156 117.855469 27.960938 C 117.476562 26.761719 117.476562 26.761719 117.304688 25.628906 C 114.613281 24.722656 111.734375 24.722656 109.042969 25.628906 C 109.226562 24.863281 109.40625 24.09375 109.59375 23.300781 C 111.652344 22.746094 113.136719 22.746094 115.203125 23.226562 Z M 115.203125 23.226562 "/>
<path style=" stroke:none;fill-rule:nonzero;fill:rgb(21.176471%,20.784314%,20.784314%);fill-opacity:1;" d="M 131.074219 23.300781 C 132.890625 23.300781 134.707031 23.300781 136.578125 23.300781 C 136.578125 23.683594 136.578125 24.070312 136.578125 24.46875 C 136.214844 24.46875 135.851562 24.46875 135.476562 24.46875 C 135.476562 28.691406 135.476562 32.925781 135.476562 37.285156 C 135.296875 37.285156 135.113281 37.285156 134.925781 37.285156 C 134.390625 34.453125 134.308594 31.777344 134.34375 28.910156 C 134.34375 28.476562 134.347656 28.050781 134.351562 27.609375 C 134.355469 26.558594 134.367188 25.511719 134.375 24.46875 C 133.46875 24.46875 132.558594 24.46875 131.625 24.46875 C 131.441406 24.082031 131.257812 23.695312 131.074219 23.300781 Z M 131.074219 23.300781 "/>
<path style=" stroke:none;fill-rule:nonzero;fill:rgb(8.627451%,8.627451%,8.627451%);fill-opacity:1;" d="M 72.144531 22.714844 C 72.144531 23.871094 72.144531 25.027344 72.144531 26.214844 C 71.78125 26.214844 71.417969 26.214844 71.042969 26.214844 C 71.042969 25.828125 71.042969 25.449219 71.042969 25.050781 C 69.226562 25.242188 67.410156 25.433594 65.535156 25.628906 C 65.535156 25.246094 65.535156 24.863281 65.535156 24.46875 C 64.992188 24.65625 64.445312 24.847656 63.882812 25.050781 C 63.339844 24.855469 62.792969 24.660156 62.230469 24.46875 C 62.230469 24.082031 62.230469 23.695312 62.230469 23.300781 C 63.78125 23.203125 65.328125 23.109375 66.878906 23.011719 C 67.320312 22.980469 67.761719 22.957031 68.21875 22.925781 C 71.53125 22.714844 71.53125 22.714844 72.144531 22.714844 Z M 72.144531 22.714844 "/>
<path style=" stroke:none;fill-rule:nonzero;fill:rgb(3.137255%,49.411765%,76.470588%);fill-opacity:1;" d="M 14.871094 33.785156 C 15.050781 33.785156 15.234375 33.785156 15.421875 33.785156 C 15.421875 34.941406 15.421875 36.09375 15.421875 37.285156 C 14.148438 37.285156 12.875 37.285156 11.566406 37.285156 C 11.566406 37.664062 11.566406 38.050781 11.566406 38.449219 C 10.476562 38.636719 9.382812 38.832031 8.261719 39.027344 C 8.261719 39.605469 8.261719 40.183594 8.261719 40.777344 C 7.714844 40.96875 7.171875 41.160156 6.609375 41.363281 C 6.539062 39.683594 6.539062 39.683594 6.609375 37.863281 C 6.972656 37.480469 7.335938 37.097656 7.710938 36.699219 C 7.710938 37.082031 7.710938 37.472656 7.710938 37.863281 C 10.140625 37.125 10.140625 37.125 12.117188 35.53125 C 13.5625 35.460938 13.5625 35.460938 14.871094 35.53125 C 14.871094 34.957031 14.871094 34.382812 14.871094 33.785156 Z M 14.871094 33.785156 "/>
<path style=" stroke:none;fill-rule:nonzero;fill:rgb(3.137255%,54.509804%,80.784314%);fill-opacity:1;" d="M 28.085938 25.050781 C 28.269531 26.011719 28.449219 26.972656 28.636719 27.960938 C 29.910156 28.347656 31.183594 28.730469 32.492188 29.128906 C 32.492188 29.699219 32.492188 30.28125 32.492188 30.871094 C 32.128906 31.261719 31.765625 31.640625 31.390625 32.039062 C 31.027344 31.464844 30.664062 30.886719 30.289062 30.292969 C 28.84375 29.582031 27.394531 29.074219 25.882812 28.542969 C 25.882812 27.773438 25.882812 27.003906 25.882812 26.214844 C 24.976562 26.214844 24.066406 26.214844 23.128906 26.214844 C 23.128906 26.019531 23.128906 25.828125 23.128906 25.628906 C 27.46875 25.050781 27.46875 25.050781 28.085938 25.050781 Z M 28.085938 25.050781 "/>
<path style=" stroke:none;fill-rule:nonzero;fill:rgb(9.019608%,53.72549%,77.254902%);fill-opacity:1;" d="M 31.390625 34.371094 C 30.664062 34.558594 29.9375 34.753906 29.1875 34.949219 C 29.1875 35.339844 29.1875 35.71875 29.1875 36.117188 C 27.917969 36.308594 26.644531 36.496094 25.332031 36.699219 C 25.695312 37.851562 26.058594 39.003906 26.433594 40.195312 C 25.527344 39.425781 24.617188 38.652344 23.679688 37.863281 C 23.863281 36.902344 24.042969 35.941406 24.230469 34.949219 C 28.875 33.539062 28.875 33.539062 31.390625 34.371094 Z M 31.390625 34.371094 "/>
<path style=" stroke:none;fill-rule:nonzero;fill:rgb(14.509804%,18.431373%,29.411765%);fill-opacity:1;" d="M 25.882812 18.058594 C 30.121094 18.730469 32.933594 19.6875 36.039062 22.972656 C 36.898438 24.46875 36.898438 24.46875 36.761719 26.105469 C 36.625 26.527344 36.488281 26.949219 36.347656 27.378906 C 35.246094 25.628906 35.246094 25.628906 34.523438 23.882812 C 33.453125 21.871094 32.835938 21.28125 30.839844 20.390625 C 29.363281 20.089844 27.9375 19.941406 26.433594 19.804688 C 26.253906 19.230469 26.070312 18.652344 25.882812 18.058594 Z M 25.882812 18.058594 "/>
<path style=" stroke:none;fill-rule:nonzero;fill:rgb(2.352941%,2.352941%,2.352941%);fill-opacity:1;" d="M 170.726562 24.46875 C 171.089844 24.65625 171.453125 24.847656 171.824219 25.050781 C 171.644531 28.894531 171.460938 32.738281 171.273438 36.699219 C 172.636719 37.277344 172.636719 37.277344 174.027344 37.863281 C 174.027344 38.058594 174.027344 38.25 174.027344 38.449219 C 172.210938 38.449219 170.394531 38.449219 168.523438 38.449219 C 168.886719 38.0625 169.25 37.675781 169.625 37.285156 C 170.121094 35.667969 170.269531 34.121094 170.347656 32.433594 C 170.371094 31.964844 170.394531 31.5 170.417969 31.019531 C 170.449219 30.300781 170.449219 30.300781 170.484375 29.558594 C 170.507812 29.074219 170.53125 28.582031 170.554688 28.078125 C 170.613281 26.878906 170.667969 25.667969 170.726562 24.46875 Z M 170.726562 24.46875 "/>
<path style=" stroke:none;fill-rule:nonzero;fill:rgb(18.039216%,18.039216%,18.039216%);fill-opacity:1;" d="M 118.957031 32.039062 C 119.320312 32.039062 119.683594 32.039062 120.058594 32.039062 C 119.992188 36.191406 119.992188 36.191406 118.691406 37.546875 C 117.242188 38.472656 116.050781 39.050781 114.34375 38.957031 C 113.449219 38.449219 113.449219 38.449219 112.898438 37.285156 C 113.589844 37.171875 114.285156 37.066406 115 36.957031 C 116.433594 36.589844 117.101562 36.421875 117.964844 35.132812 C 118.476562 33.886719 118.476562 33.886719 118.957031 32.039062 Z M 118.957031 32.039062 "/>
<path style=" stroke:none;fill-rule:nonzero;fill:rgb(19.215686%,53.333333%,70.196078%);fill-opacity:1;" d="M 35.796875 39.027344 C 37.175781 40.488281 37.175781 40.488281 38.550781 41.941406 C 39.0625 42.457031 39.574219 42.972656 40.101562 43.503906 C 41.304688 44.855469 41.304688 44.855469 41.304688 46.019531 C 37.667969 46.019531 34.035156 46.019531 30.289062 46.019531 C 30.109375 45.632812 29.925781 45.253906 29.738281 44.855469 C 33.011719 45.046875 36.28125 45.238281 39.652344 45.441406 C 39.015625 44.597656 38.378906 43.753906 37.726562 42.890625 C 35.796875 40.339844 35.796875 40.339844 35.796875 39.027344 Z M 35.796875 39.027344 "/>
<path style=" stroke:none;fill-rule:nonzero;fill:rgb(3.137255%,43.137255%,70.588235%);fill-opacity:1;" d="M 29.1875 23.300781 C 31.832031 24.730469 31.832031 24.730469 32.390625 26.320312 C 32.421875 26.671875 32.457031 27.019531 32.492188 27.378906 C 33.039062 27.378906 33.582031 27.378906 34.144531 27.378906 C 33.964844 28.527344 33.78125 29.683594 33.59375 30.871094 C 33.050781 30.871094 32.503906 30.871094 31.941406 30.871094 C 31.941406 30.300781 31.941406 29.71875 31.941406 29.128906 C 31.769531 28.152344 31.589844 27.183594 31.390625 26.214844 C 30.484375 26.214844 29.574219 26.214844 28.636719 26.214844 C 28.820312 25.253906 29 24.292969 29.1875 23.300781 Z M 29.1875 23.300781 "/>
<path style=" stroke:none;fill-rule:nonzero;fill:rgb(71.764706%,36.078431%,24.313725%);fill-opacity:1;" d="M 35.796875 16.3125 C 37.089844 17.675781 37.425781 18.613281 37.503906 20.542969 C 37.496094 21.003906 37.492188 21.472656 37.484375 21.957031 C 37.480469 22.425781 37.472656 22.898438 37.46875 23.378906 C 37.460938 23.738281 37.457031 24.097656 37.449219 24.46875 C 35.246094 23.691406 34.785156 22.429688 33.59375 20.390625 C 34.320312 20.199219 35.046875 20.003906 35.796875 19.804688 C 35.796875 18.652344 35.796875 17.503906 35.796875 16.3125 Z M 35.796875 16.3125 "/>
<path style=" stroke:none;fill-rule:nonzero;fill:rgb(8.235294%,8.235294%,8.235294%);fill-opacity:1;" d="M 125.566406 30.292969 C 127.929688 30.292969 130.289062 30.292969 132.726562 30.292969 C 132.90625 31.058594 133.089844 31.828125 133.273438 32.621094 C 129.457031 32.332031 129.457031 32.332031 125.566406 32.039062 C 125.566406 31.464844 125.566406 30.886719 125.566406 30.292969 Z M 125.566406 30.292969 "/>
<path style=" stroke:none;fill-rule:nonzero;fill:rgb(11.372549%,58.823529%,81.960784%);fill-opacity:1;" d="M 26.984375 39.609375 C 27.347656 40.382812 27.710938 41.152344 28.085938 41.941406 C 29.175781 41.746094 30.269531 41.554688 31.390625 41.363281 C 31.574219 42.703125 31.753906 44.050781 31.941406 45.441406 C 29.5 44.625 28.15625 43.335938 26.433594 41.363281 C 26.617188 40.78125 26.796875 40.207031 26.984375 39.609375 Z M 26.984375 39.609375 "/>
<path style=" stroke:none;fill-rule:nonzero;fill:rgb(12.156863%,12.156863%,12.156863%);fill-opacity:1;" d="M 69.941406 29.128906 C 70.304688 29.128906 70.667969 29.128906 71.042969 29.128906 C 71.226562 30.28125 71.40625 31.433594 71.59375 32.621094 C 71.050781 32.8125 70.503906 33.003906 69.941406 33.207031 C 69.941406 32.816406 69.941406 32.4375 69.941406 32.039062 C 68.667969 32.039062 67.398438 32.039062 66.085938 32.039062 C 66.449219 31.464844 66.8125 30.886719 67.1875 30.292969 C 68.632812 30.183594 68.632812 30.183594 69.941406 30.292969 C 69.941406 29.90625 69.941406 29.519531 69.941406 29.128906 Z M 69.941406 29.128906 "/>
<path style=" stroke:none;fill-rule:nonzero;fill:rgb(1.960784%,1.176471%,1.568627%);fill-opacity:1;" d="M 132.726562 24.46875 C 133.269531 24.46875 133.816406 24.46875 134.375 24.46875 C 134.375 28.121094 134.375 31.769531 134.375 35.53125 C 134.195312 35.53125 134.011719 35.53125 133.824219 35.53125 C 133.460938 31.878906 133.097656 28.230469 132.726562 24.46875 Z M 132.726562 24.46875 "/>
<path style=" stroke:none;fill-rule:nonzero;fill:rgb(89.411765%,66.27451%,25.882353%);fill-opacity:1;" d="M 7.710938 12.234375 C 9.363281 12.816406 9.363281 12.816406 10.292969 14.527344 C 12.023438 16.949219 13.199219 16.988281 15.972656 17.480469 C 15.972656 17.667969 15.972656 17.859375 15.972656 18.058594 C 13.21875 18.925781 13.21875 18.925781 11.566406 18.636719 C 9.953125 17.113281 8.777344 15.378906 7.710938 13.402344 C 7.710938 13.011719 7.710938 12.628906 7.710938 12.234375 Z M 7.710938 12.234375 "/>
<path style=" stroke:none;fill-rule:nonzero;fill:rgb(2.352941%,56.078431%,83.529412%);fill-opacity:1;" d="M 11.566406 37.285156 C 12.835938 37.285156 14.109375 37.285156 15.421875 37.285156 C 13.09375 39.285156 11.289062 40.195312 8.261719 40.195312 C 8.261719 39.808594 8.261719 39.425781 8.261719 39.027344 C 9.351562 38.835938 10.441406 38.644531 11.566406 38.449219 C 11.566406 38.0625 11.566406 37.675781 11.566406 37.285156 Z M 11.566406 37.285156 "/>
<path style=" stroke:none;fill-rule:nonzero;fill:rgb(10.588235%,10.588235%,10.588235%);fill-opacity:1;" d="M 90.871094 34.949219 C 91.597656 35.144531 92.324219 35.339844 93.074219 35.53125 C 93.253906 36.496094 93.4375 37.457031 93.625 38.449219 C 91.988281 38.449219 90.351562 38.449219 88.667969 38.449219 C 89.210938 37.871094 89.757812 37.292969 90.320312 36.699219 C 90.5 36.121094 90.683594 35.542969 90.871094 34.949219 Z M 90.871094 34.949219 "/>
<path style=" stroke:none;fill-rule:nonzero;fill:rgb(4.705882%,4.313725%,4.705882%);fill-opacity:1;" d="M 153.101562 34.949219 C 154.03125 35.910156 154.949219 36.878906 155.855469 37.863281 C 155.855469 38.058594 155.855469 38.25 155.855469 38.449219 C 154.039062 38.449219 152.21875 38.449219 150.347656 38.449219 C 151.074219 38.0625 151.800781 37.675781 152.550781 37.285156 C 152.996094 36.089844 152.996094 36.089844 153.101562 34.949219 Z M 153.101562 34.949219 "/>
<path style=" stroke:none;fill-rule:nonzero;fill:rgb(11.764706%,11.764706%,11.764706%);fill-opacity:1;" d="M 138.78125 23.300781 C 140.601562 23.300781 142.417969 23.300781 144.289062 23.300781 C 144.289062 23.683594 144.289062 24.070312 144.289062 24.46875 C 143.746094 24.753906 143.746094 24.753906 143.1875 25.050781 C 142.644531 25.917969 142.644531 25.917969 142.085938 26.792969 C 141.722656 26.222656 141.359375 25.640625 140.984375 25.050781 C 139.851562 24.628906 139.851562 24.628906 138.78125 24.46875 C 138.78125 24.082031 138.78125 23.695312 138.78125 23.300781 Z M 138.78125 23.300781 "/>
<path style=" stroke:none;fill-rule:nonzero;fill:rgb(12.156863%,11.764706%,11.764706%);fill-opacity:1;" d="M 159.160156 20.390625 C 160.617188 22.207031 161.277344 23.933594 161.914062 26.214844 C 161.550781 26.214844 161.1875 26.214844 160.8125 26.214844 C 160.8125 25.828125 160.8125 25.449219 160.8125 25.050781 C 160.085938 24.855469 159.359375 24.660156 158.609375 24.46875 C 158.585938 23.300781 158.585938 22.136719 158.609375 20.972656 C 158.789062 20.777344 158.972656 20.582031 159.160156 20.390625 Z M 159.160156 20.390625 "/>
<path style=" stroke:none;fill-rule:nonzero;fill:rgb(2.352941%,48.235294%,76.470588%);fill-opacity:1;" d="M 31.390625 34.371094 C 29.703125 35.410156 28.515625 35.667969 26.574219 35.605469 C 26.132812 35.597656 25.691406 35.582031 25.238281 35.574219 C 24.90625 35.558594 24.574219 35.550781 24.230469 35.53125 C 26.261719 33.386719 28.753906 33.632812 31.390625 34.371094 Z M 31.390625 34.371094 "/>
<path style=" stroke:none;fill-rule:nonzero;fill:rgb(9.411765%,9.411765%,9.411765%);fill-opacity:1;" d="M 85.914062 25.628906 C 86.277344 25.824219 86.640625 26.015625 87.015625 26.214844 C 86.46875 27.941406 85.925781 29.671875 85.363281 31.457031 C 84.261719 29.707031 84.261719 29.707031 84.261719 27.378906 C 85.085938 26.363281 85.085938 26.363281 85.914062 25.628906 Z M 85.914062 25.628906 "/>
<path style=" stroke:none;fill-rule:nonzero;fill:rgb(3.137255%,3.137255%,3.137255%);fill-opacity:1;" d="M 100.230469 32.039062 C 100.414062 32.613281 100.59375 33.191406 100.78125 33.785156 C 98.75 34.503906 97.363281 34.160156 95.273438 33.785156 C 95.457031 33.402344 95.640625 33.019531 95.824219 32.621094 C 97.351562 32.199219 98.652344 32.039062 100.230469 32.039062 Z M 100.230469 32.039062 "/>
<path style=" stroke:none;fill-rule:nonzero;fill:rgb(1.568627%,1.568627%,1.568627%);fill-opacity:1;" d="M 96.375 26.792969 C 97.738281 27.082031 97.738281 27.082031 99.128906 27.378906 C 99.3125 28.722656 99.492188 30.070312 99.679688 31.457031 C 98.648438 31.089844 98.648438 31.089844 97.476562 30.292969 C 96.789062 28.472656 96.789062 28.472656 96.375 26.792969 Z M 96.375 26.792969 "/>
<path style=" stroke:none;fill-rule:nonzero;fill:rgb(10.196078%,10.196078%,10.196078%);fill-opacity:1;" d="M 73.246094 23.300781 C 75.0625 23.300781 76.882812 23.300781 78.753906 23.300781 C 78.753906 23.683594 78.753906 24.070312 78.753906 24.46875 C 75.105469 25.121094 75.105469 25.121094 73.246094 24.46875 C 73.246094 24.082031 73.246094 23.695312 73.246094 23.300781 Z M 73.246094 23.300781 "/>
<path style=" stroke:none;fill-rule:nonzero;fill:rgb(0%,38.823529%,66.666667%);fill-opacity:1;" d="M 13.21875 33.785156 C 11.628906 35.183594 10.152344 36.394531 8.261719 37.285156 C 8.433594 36.1875 8.433594 36.1875 8.8125 34.949219 C 10.589844 33.699219 11.171875 33.667969 13.21875 33.785156 Z M 13.21875 33.785156 "/>
<path style=" stroke:none;fill-rule:nonzero;fill:rgb(1.960784%,20.784314%,41.960784%);fill-opacity:1;" d="M 29.738281 19.804688 C 32.136719 20.484375 33.398438 21.019531 34.695312 23.300781 C 33.785156 23.109375 32.878906 22.917969 31.941406 22.714844 C 31.941406 22.335938 31.941406 21.949219 31.941406 21.550781 C 31.214844 21.363281 30.488281 21.167969 29.738281 20.972656 C 29.738281 20.582031 29.738281 20.203125 29.738281 19.804688 Z M 29.738281 19.804688 "/>
<path style=" stroke:none;fill-rule:nonzero;fill:rgb(1.568627%,1.568627%,1.568627%);fill-opacity:1;" d="M 55.074219 22.136719 C 56.433594 22.710938 56.433594 22.710938 57.824219 23.300781 C 57.644531 24.070312 57.460938 24.839844 57.273438 25.628906 C 56.730469 25.441406 56.183594 25.246094 55.625 25.050781 C 55.441406 24.089844 55.257812 23.128906 55.074219 22.136719 Z M 55.074219 22.136719 "/>
<path style=" stroke:none;fill-rule:nonzero;fill:rgb(9.803922%,9.803922%,9.803922%);fill-opacity:1;" d="M 95.824219 23.300781 C 96.371094 23.300781 96.917969 23.300781 97.476562 23.300781 C 97.839844 24.261719 98.207031 25.222656 98.578125 26.214844 C 97.488281 26.214844 96.398438 26.214844 95.273438 26.214844 C 95.457031 25.253906 95.640625 24.292969 95.824219 23.300781 Z M 95.824219 23.300781 "/>
<path style=" stroke:none;fill-rule:nonzero;fill:rgb(9.803922%,9.803922%,9.803922%);fill-opacity:1;" d="M 113.449219 23.300781 C 112.359375 24.070312 111.269531 24.839844 110.144531 25.628906 C 109.78125 25.441406 109.417969 25.246094 109.042969 25.050781 C 109.226562 24.472656 109.40625 23.894531 109.59375 23.300781 C 112.210938 22.644531 112.210938 22.644531 113.449219 23.300781 Z M 113.449219 23.300781 "/>
<path style=" stroke:none;fill-rule:nonzero;fill:rgb(25.490196%,26.27451%,28.627451%);fill-opacity:1;" d="M 25.882812 18.058594 C 28.609375 18.632812 28.609375 18.632812 31.390625 19.222656 C 31.390625 19.417969 31.390625 19.605469 31.390625 19.804688 C 29.753906 19.804688 28.121094 19.804688 26.433594 19.804688 C 26.253906 19.230469 26.070312 18.652344 25.882812 18.058594 Z M 25.882812 18.058594 "/>
</g>
</svg>
