<?xml version="1.0" encoding="UTF-8"?>
<svg version="1.1" xmlns="http://www.w3.org/2000/svg" width="322" height="83">
<path d="M0 0 C5.40768471 -0.07455448 10.81506548 -0.12879227 16.22314453 -0.16479492 C18.06011166 -0.17981496 19.89704334 -0.20023709 21.73388672 -0.22631836 C24.38518054 -0.26300202 27.03599732 -0.27979438 29.6875 -0.29296875 C30.49928711 -0.30845261 31.31107422 -0.32393646 32.14746094 -0.33988953 C38.51790871 -0.34173968 44.19303495 0.66249252 49.2421875 4.8671875 C54.25216171 11.02777779 56.55925905 15.35769455 56.37890625 23.4375 C55.31504385 30.63228078 50.37117374 34.6777674 45 39 C46.68661181 41.0007547 48.37423293 43.00064268 50.0625 45 C50.81043823 45.88715698 50.81043823 45.88715698 51.57348633 46.79223633 C54.93021492 50.76450062 58.34574102 54.6732109 61.85546875 58.51171875 C63 60 63 60 63 62 C46.32327335 64.07635134 46.32327335 64.07635134 40.95556641 60.72265625 C36.43231241 56.58285507 33.13225294 51.40219079 29.89404297 46.23535156 C28.13605822 43.73334519 26.6792683 42.17370137 23.68383789 41.40771484 C21.44181559 41.15380171 19.25535717 41.00982726 17 41 C17.00785522 41.90093384 17.00785522 41.90093384 17.01586914 42.82006836 C17.03658014 45.52586838 17.04964125 48.23165177 17.0625 50.9375 C17.07087891 51.88302734 17.07925781 52.82855469 17.08789062 53.80273438 C17.09272461 55.15141602 17.09272461 55.15141602 17.09765625 56.52734375 C17.10551147 57.77632446 17.10551147 57.77632446 17.11352539 59.05053711 C17 61 17 61 16 62 C13.3226862 62.09981214 10.67695825 62.13879875 8 62.125 C6.87464844 62.13080078 6.87464844 62.13080078 5.7265625 62.13671875 C0.12661053 62.12661053 0.12661053 62.12661053 -1 61 C-1.29036418 56.94078225 -1.3140399 52.87776184 -1.35009766 48.80908203 C-1.36661471 47.44334827 -1.39384955 46.07769945 -1.43212891 44.71240234 C-1.48711332 42.74109168 -1.50567176 40.76887231 -1.5234375 38.796875 C-1.54325684 37.61448242 -1.56307617 36.43208984 -1.58349609 35.21386719 C-0.82867366 31.05634313 0.75389955 29.61383627 4 27 C7.29901038 25.90032987 9.8739186 25.82652539 13.34765625 25.75390625 C14.59224609 25.72103516 15.83683594 25.68816406 17.11914062 25.65429688 C19.75186316 25.59301012 22.38468195 25.5357299 25.01757812 25.48242188 C26.8825293 25.43118164 26.8825293 25.43118164 28.78515625 25.37890625 C29.92863525 25.3538501 31.07211426 25.32879395 32.25024414 25.30297852 C35.14254575 25.27439435 35.14254575 25.27439435 37 23 C37.33333333 20.5 37.33333333 20.5 37 18 C35.18127234 15.73195045 35.18127234 15.73195045 32.54492188 15.88745117 C31.0222168 15.96443237 31.0222168 15.96443237 29.46875 16.04296875 C9.8290965 16.54012138 9.8290965 16.54012138 5.0546875 12.046875 C2.499466 8.9518844 0.65346529 5.6467532 -1 2 C-0.67 1.34 -0.34 0.68 0 0 Z " fill="#1A8BC3" transform="translate(7,16)"/>
<path d="M0 0 C5.40768471 -0.07455448 10.81506548 -0.12879227 16.22314453 -0.16479492 C18.06011166 -0.17981496 19.89704334 -0.20023709 21.73388672 -0.22631836 C24.38518054 -0.26300202 27.03599732 -0.27979438 29.6875 -0.29296875 C30.49928711 -0.30845261 31.31107422 -0.32393646 32.14746094 -0.33988953 C38.51790871 -0.34173968 44.19303495 0.66249252 49.2421875 4.8671875 C55.13195225 12.10962549 56.32502231 16.70075063 56 26 C54.62437146 24.71034824 53.29233607 23.37310707 52 22 C52 21.34 52 20.68 52 20 C51.21625 19.690625 50.4325 19.38125 49.625 19.0625 C47 18 47 18 45 17 C45 16.34 45 15.68 45 15 C43.96182129 15.06807861 42.92364258 15.13615723 41.85400391 15.20629883 C37.96033492 15.44360515 34.06728237 15.59149489 30.16845703 15.71411133 C28.48962633 15.77905362 26.81151878 15.86746064 25.13525391 15.98071289 C11.54301509 16.87525869 11.54301509 16.87525869 7.21276855 13.68206787 C3.78996866 10.20510071 1.32355373 6.26774419 -1 2 C-0.67 1.34 -0.34 0.68 0 0 Z " fill="#FCCC07" transform="translate(7,16)"/>
<path d="M0 0 C1.53527344 -0.01836914 1.53527344 -0.01836914 3.1015625 -0.03710938 C4.0915625 -0.03904297 5.0815625 -0.04097656 6.1015625 -0.04296875 C7.44081787 -0.04913208 7.44081787 -0.04913208 8.80712891 -0.05541992 C11.69153771 0.21744438 13.79265431 0.88078757 16.375 2.1875 C17.39804948 3.84011839 18.40116054 5.50541365 19.375 7.1875 C20.365 7.1875 21.355 7.1875 22.375 7.1875 C22.87 8.6725 22.87 8.6725 23.375 10.1875 C18.51615799 14.15538164 13.61971553 13.46058769 7.6875 13.25 C-3.16459779 12.90136801 -12.00015424 13.06262742 -20.625 20.1875 C-20.67928973 17.95860504 -20.71792338 15.72932529 -20.75 13.5 C-20.78480469 11.63794922 -20.78480469 11.63794922 -20.8203125 9.73828125 C-20.63532021 6.37512143 -20.08267895 4.1889413 -18.625 1.1875 C-12.40699456 0.09278073 -6.30434157 0.00400022 0 0 Z " fill="#0C9CDD" transform="translate(27.625,42.8125)"/>
<path d="M0 0 C0.33 0.66 0.66 1.32 1 2 C0.67 2.66 0.34 3.32 0 4 C-0.07092842 6.2072923 -0.08415025 8.41667452 -0.0625 10.625 C-0.05347656 11.81351563 -0.04445313 13.00203125 -0.03515625 14.2265625 C-0.02355469 15.14179687 -0.01195312 16.05703125 0 17 C0.78375 16.21625 1.5675 15.4325 2.375 14.625 C8.18240562 9.80143722 15.93428651 9.78618367 23.1875 9.734375 C25 10 25 10 27 12 C24.47946405 13.26026798 23.1457902 12.91874445 20.375 12.5625 C19.55773437 12.46066406 18.74046875 12.35882813 17.8984375 12.25390625 C17.27195312 12.17011719 16.64546875 12.08632813 16 12 C16.00785522 12.90093384 16.00785522 12.90093384 16.01586914 13.82006836 C16.03658014 16.52586838 16.04964125 19.23165177 16.0625 21.9375 C16.07087891 22.88302734 16.07925781 23.82855469 16.08789062 24.80273438 C16.09272461 26.15141602 16.09272461 26.15141602 16.09765625 27.52734375 C16.10551147 28.77632446 16.10551147 28.77632446 16.11352539 30.05053711 C16 32 16 32 15 33 C12.3226862 33.09981214 9.67695825 33.13879875 7 33.125 C5.87464844 33.13080078 5.87464844 33.13080078 4.7265625 33.13671875 C-0.87338947 33.12661053 -0.87338947 33.12661053 -2 32 C-2.21818246 27.90257007 -2.18579116 23.8019736 -2.18530273 19.69921875 C-2.18748367 17.64041306 -2.20562031 15.58214788 -2.22460938 13.5234375 C-2.22654297 12.22921875 -2.22847656 10.935 -2.23046875 9.6015625 C-2.23457764 8.40869629 -2.23868652 7.21583008 -2.24291992 5.98681641 C-2 3 -2 3 0 0 Z " fill="#1A97D0" transform="translate(8,45)"/>
<path d="M0 0 C1.65 0 3.3 0 5 0 C4.67 0.99 4.34 1.98 4 3 C5.33998047 2.83564453 5.33998047 2.83564453 6.70703125 2.66796875 C10 3 10 3 12.44921875 5.30078125 C13.18785156 6.29464844 13.92648438 7.28851563 14.6875 8.3125 C17.54746228 12.18021159 17.54746228 12.18021159 20.76953125 15.73046875 C22 17 22 17 22 19 C5.28734676 20.89750648 5.28734676 20.89750648 0.07128906 17.88671875 C-3.44115106 14.82361781 -5.94226396 11.18045321 -8 7 C-8 5.68 -8 4.36 -8 3 C-5.29120665 1.64560332 -2.99066732 1.93498549 0 2 C0 1.34 0 0.68 0 0 Z " fill="#1797D3" transform="translate(48,59)"/>
<path d="M0 0 C0.495 0.99 0.495 0.99 1 2 C1.99 2 2.98 2 4 2 C6.59227518 6.86051596 6.18689553 11.65271133 6 17 C4.62437146 15.71034824 3.29233607 14.37310707 2 13 C2 12.34 2 11.68 2 11 C1.21625 10.690625 0.4325 10.38125 -0.375 10.0625 C-3 9 -3 9 -5 8 C-5 7.34 -5 6.68 -5 6 C-16.88 6 -28.76 6 -41 6 C-41.66 4.35 -42.32 2.7 -43 1 C-28.81 0.67 -14.62 0.34 0 0 Z " fill="#E3911D" transform="translate(57,25)"/>
<path d="M0 0 C3.3 0.33 6.6 0.66 10 1 C10 1.66 10 2.32 10 3 C10.763125 3.268125 11.52625 3.53625 12.3125 3.8125 C16.20282263 5.53147977 17.65523565 7.48285348 20 11 C19.86630459 15.94673016 17.17646369 18.49774516 14 22 C13.67 20.68 13.34 19.36 13 18 C13.66 18 14.32 18 15 18 C15 17.34 15 16.68 15 16 C14.0925 15.71125 13.185 15.4225 12.25 15.125 C9 14 9 14 6.9375 12.875 C4.52612646 11.7859926 2.61567161 11.85468491 0 12 C0.66 11.01 1.32 10.02 2 9 C2.40869661 5.01520804 1.88325912 3.76651824 0 0 Z " fill="#0962A9" transform="translate(42,30)"/>
<path d="M0 0 C1.26788612 -0.00855011 1.26788612 -0.00855011 2.56138611 -0.01727295 C4.35788719 -0.02674296 6.1544058 -0.03326483 7.95092773 -0.03710938 C10.67919162 -0.04674903 13.40668091 -0.07772496 16.13476562 -0.109375 C17.88150595 -0.11591158 19.62825167 -0.12115947 21.375 -0.125 C22.58797508 -0.1435202 22.58797508 -0.1435202 23.82545471 -0.16241455 C30.08817682 -0.1382246 35.56919942 0.94253596 40.74609375 4.73828125 C44.65234375 8.98090278 44.65234375 8.98090278 44.65234375 11.203125 C43.99234375 11.203125 43.33234375 11.203125 42.65234375 11.203125 C41.46411018 9.72586164 40.27892119 8.24433118 39.1640625 6.7109375 C36.2564003 3.81078864 33.1732838 3.23686981 29.1472168 2.97607422 C27.83277588 2.98654785 26.51833496 2.99702148 25.1640625 3.0078125 C24.4608638 3.0106424 23.7576651 3.01347229 23.03315735 3.01638794 C20.80187483 3.02752349 18.57100358 3.05261503 16.33984375 3.078125 C14.82096937 3.0881634 13.30208865 3.09728774 11.78320312 3.10546875 C8.07278454 3.12744087 4.36260433 3.16192453 0.65234375 3.203125 C-0.57905025 5.66591301 -0.41924821 7.4826305 -0.34765625 10.203125 C-1.33765625 10.203125 -2.32765625 10.203125 -3.34765625 10.203125 C-4.953125 8.234375 -4.953125 8.234375 -6.53515625 5.703125 C-7.06496094 4.8678125 -7.59476562 4.0325 -8.140625 3.171875 C-8.53894531 2.5221875 -8.93726563 1.8725 -9.34765625 1.203125 C-7.27535 -0.86918125 -2.85575837 0.01475004 0 0 Z " fill="#E7B924" transform="translate(15.34765625,15.796875)"/>
<path d="M0 0 C0 2.31 0 4.62 0 7 C-10.37357631 12.74031891 -10.37357631 12.74031891 -16 12 C-16.4375 9.875 -16.4375 9.875 -16 7 C-11.01273219 1.52840434 -7.38507993 -0.13676074 0 0 Z " fill="#036DB5" transform="translate(23,56)"/>
<path d="M0 0 C1.65 0 3.3 0 5 0 C4.67 0.99 4.34 1.98 4 3 C4.99 3 5.98 3 7 3 C7.625 4.875 7.625 4.875 8 7 C7.34 7.66 6.68 8.32 6 9 C5.67 9.66 5.34 10.32 5 11 C1.6875 11.9375 1.6875 11.9375 -2 12 C-4.3125 9.625 -4.3125 9.625 -6 7 C-6.66 6.67 -7.32 6.34 -8 6 C-8 5.01 -8 4.02 -8 3 C-5.29120665 1.64560332 -2.99066732 1.93498549 0 2 C0 1.34 0 0.68 0 0 Z " fill="#0B9BDE" transform="translate(48,59)"/>
<path d="M0 0 C3.21967347 0.61327114 3.62222735 1.41284657 5.5 4 C6.22830945 5.15430177 6.94329621 6.31757573 7.625 7.5 C5.975 7.5 4.325 7.5 2.625 7.5 C2.625 6.84 2.625 6.18 2.625 5.5 C1.305 5.17 -0.015 4.84 -1.375 4.5 C-1.375 5.16 -1.375 5.82 -1.375 6.5 C-4.015 6.83 -6.655 7.16 -9.375 7.5 C-9.705 8.49 -10.035 9.48 -10.375 10.5 C-14.37890625 6.10546875 -14.37890625 6.10546875 -15.375 4.5 C-15.045 3.51 -14.715 2.52 -14.375 1.5 C-11.65220241 1.22868921 -8.93031599 0.97376952 -6.203125 0.75 C-4.12844831 0.56660317 -2.06028018 0.30522669 0 0 Z " fill="#0B82C5" transform="translate(49.375,54.5)"/>
<path d="M0 0 C0.495 1.485 0.495 1.485 1 3 C-12.86 3 -26.72 3 -41 3 C-41.33 2.34 -41.66 1.68 -42 1 C-36.82220789 0.85671231 -31.64439214 0.71432229 -26.46655273 0.57275391 C-24.70612933 0.52449651 -22.94571256 0.47599641 -21.18530273 0.42724609 C-18.65089609 0.35710437 -16.11646666 0.28784346 -13.58203125 0.21875 C-12.79850784 0.19687622 -12.01498444 0.17500244 -11.2077179 0.15246582 C-7.47071228 0.05141415 -3.73844255 -0.02602919 0 0 Z " fill="#F9B308" transform="translate(56,23)"/>
<path d="M0 0 C3.3 0.33 6.6 0.66 10 1 C10 1.66 10 2.32 10 3 C10.763125 3.268125 11.52625 3.53625 12.3125 3.8125 C16.20282263 5.53147977 17.65523565 7.48285348 20 11 C19.625 13.6875 19.625 13.6875 19 16 C18.896875 15.360625 18.79375 14.72125 18.6875 14.0625 C18.460625 13.381875 18.23375 12.70125 18 12 C17.01 11.67 16.02 11.34 15 11 C15 10.34 15 9.68 15 9 C13.68 8.67 12.36 8.34 11 8 C11 7.34 11 6.68 11 6 C10.360625 5.87625 9.72125 5.7525 9.0625 5.625 C8.381875 5.41875 7.70125 5.2125 7 5 C6.67 4.34 6.34 3.68 6 3 C4.35 3 2.7 3 1 3 C0.67 2.01 0.34 1.02 0 0 Z " fill="#133A66" transform="translate(42,30)"/>
<path d="M0 0 C2.44113749 1.20344654 4.68132309 2.56242032 7 4 C7 4.66 7 5.32 7 6 C6.34 6 5.68 6 5 6 C4.67 7.32 4.34 8.64 4 10 C4 9.34 4 8.68 4 8 C2.88625 7.773125 1.7725 7.54625 0.625 7.3125 C-3 6 -3 6 -4.25 3.4375 C-4.4975 2.633125 -4.745 1.82875 -5 1 C-5.99 0.67 -6.98 0.34 -8 0 C-5.01214315 -1.49392842 -3.21972436 -0.78974371 0 0 Z " fill="#0574BB" transform="translate(50,42)"/>
<path d="M0 0 C2.475 0.495 2.475 0.495 5 1 C5 1.66 5 2.32 5 3 C6.32 3.33 7.64 3.66 9 4 C9 4.66 9 5.32 9 6 C9.598125 6.103125 10.19625 6.20625 10.8125 6.3125 C13.38994819 7.12255514 14.43063575 7.80289005 16 10 C16.1875 12.6875 16.1875 12.6875 16 15 C15.54109375 14.59007812 15.0821875 14.18015625 14.609375 13.7578125 C13.68898438 12.94957031 13.68898438 12.94957031 12.75 12.125 C12.14671875 11.59132813 11.5434375 11.05765625 10.921875 10.5078125 C9.0485133 8.93114545 9.0485133 8.93114545 6.83203125 7.93359375 C4.4584916 6.72405009 4.13443468 5.34449835 3 3 C2.01 2.67 1.02 2.34 0 2 C0 1.34 0 0.68 0 0 Z " fill="#034C8D" transform="translate(44,32)"/>
<path d="M0 0 C0.33 0 0.66 0 1 0 C1 1.98 1 3.96 1 6 C-0.60032137 6.84069415 -2.20541171 7.67231505 -3.8125 8.5 C-4.70582031 8.9640625 -5.59914063 9.428125 -6.51953125 9.90625 C-9 11 -9 11 -12 11 C-11.67 10.01 -11.34 9.02 -11 8 C-10.34 8 -9.68 8 -9 8 C-9 7.34 -9 6.68 -9 6 C-6.69723426 3.78252188 -5.47519908 3.03239994 -2.25 2.8125 C-1.13625 2.9053125 -1.13625 2.9053125 0 3 C0 2.01 0 1.02 0 0 Z " fill="#058BD1" transform="translate(22,57)"/>
<path d="M0 0 C2.42581871 2.42581871 2.96355664 4.07433869 3.09765625 7.48046875 C3.08605469 8.37378906 3.07445312 9.26710938 3.0625 10.1875 C3.05347656 11.08855469 3.04445313 11.98960938 3.03515625 12.91796875 C3.02355469 13.60503906 3.01195312 14.29210938 3 15 C1.62437146 13.71034824 0.29233607 12.37310707 -1 11 C-1 10.34 -1 9.68 -1 9 C-2.175625 8.566875 -2.175625 8.566875 -3.375 8.125 C-6 7 -6 7 -8 5 C-5.03 5.33 -2.06 5.66 1 6 C0.67 4.02 0.34 2.04 0 0 Z " fill="#C06342" transform="translate(60,27)"/>
<path d="M0 0 C0.33 0.99 0.66 1.98 1 3 C0.24074219 3.06058594 -0.51851562 3.12117188 -1.30078125 3.18359375 C-2.29464844 3.26738281 -3.28851563 3.35117187 -4.3125 3.4375 C-5.79169922 3.55931641 -5.79169922 3.55931641 -7.30078125 3.68359375 C-10.09375599 3.91812559 -10.09375599 3.91812559 -13 5 C-13.33 5.66 -13.66 6.32 -14 7 C-14.99 6.01 -15.98 5.02 -17 4 C-16.67 3.01 -16.34 2.02 -16 1 C-14.27111445 0.83044205 -12.54187557 0.66448486 -10.8125 0.5 C-9.84957031 0.4071875 -8.88664062 0.314375 -7.89453125 0.21875 C-5.24812333 0.01875156 -2.65239135 -0.03879183 0 0 Z " fill="#026EB5" transform="translate(51,55)"/>
<path d="M0 0 C2 3.75 2 3.75 2 6 C-2.97093824 5.58846263 -7.44508386 5.20399168 -12 3 C-12 2.67 -12 2.34 -12 2 C-11.21753906 1.93941406 -10.43507812 1.87882812 -9.62890625 1.81640625 C-8.61699219 1.73261719 -7.60507812 1.64882813 -6.5625 1.5625 C-5.55316406 1.48128906 -4.54382812 1.40007813 -3.50390625 1.31640625 C-1.06359221 1.26788532 -1.06359221 1.26788532 0 0 Z " fill="#E98518" transform="translate(59,27)"/>
<path d="M0 0 C1.64510941 0.00015915 3.29022379 0.00585551 4.93530273 0.01586914 C6.23164894 0.01799156 6.23164894 0.01799156 7.55418396 0.02015686 C10.32578941 0.025773 13.09731528 0.0383282 15.86889648 0.05102539 C17.74324428 0.05603831 19.61759334 0.06060158 21.49194336 0.06469727 C26.09679192 0.07574767 30.70158069 0.09302309 35.30639648 0.11352539 C35.30639648 0.44352539 35.30639648 0.77352539 35.30639648 1.11352539 C23.09639648 1.11352539 10.88639648 1.11352539 -1.69360352 1.11352539 C-2.02360352 2.10352539 -2.35360352 3.09352539 -2.69360352 4.11352539 C-3.35360352 3.12352539 -4.01360352 2.13352539 -4.69360352 1.11352539 C-3.69360352 0.11352539 -3.69360352 0.11352539 0 0 Z " fill="#EAC453" transform="translate(10.693603515625,15.886474609375)"/>
<path d="M0 0 C1.66666667 1.66666667 3.33333333 3.33333333 5 5 C5.8971875 5.804375 5.8971875 5.804375 6.8125 6.625 C8 8 8 8 8 11 C6.02 11 4.04 11 2 11 C2.66 10.67 3.32 10.34 4 10 C3.34 9.278125 2.68 8.55625 2 7.8125 C-0.1535853 4.78402067 -0.41176754 3.60296594 0 0 Z " fill="#2096C9" transform="translate(60,66)"/>
<path d="M0 0 C3.3 0.33 6.6 0.66 10 1 C10 1.66 10 2.32 10 3 C10.763125 3.268125 11.52625 3.53625 12.3125 3.8125 C14.88988618 4.95134505 16.26954864 5.81416671 18 8 C18 8.66 18 9.32 18 10 C17.34 10 16.68 10 16 10 C15.236875 9.21625 14.47375 8.4325 13.6875 7.625 C10.29704695 4.3133947 7.9098882 3.08488392 3.1875 2.875 C2.465625 2.91625 1.74375 2.9575 1 3 C0.67 2.01 0.34 1.02 0 0 Z " fill="#45393B" transform="translate(42,30)"/>
<path d="M0 0 C2.31 0 4.62 0 7 0 C6.25 6.75 6.25 6.75 4 9 C0 4.5 0 4.5 0 0 Z " fill="#F2C627" transform="translate(9,18)"/>
<path d="M0 0 C0.33 0 0.66 0 1 0 C1 1.65 1 3.3 1 5 C-3.455 6.485 -3.455 6.485 -8 8 C-8.33 7.34 -8.66 6.68 -9 6 C-6.64031256 3.90250005 -5.45383006 3.03094296 -2.25 2.8125 C-1.13625 2.9053125 -1.13625 2.9053125 0 3 C0 2.01 0 1.02 0 0 Z " fill="#067DC2" transform="translate(22,57)"/>
<path d="M0 0 C0 0.66 0 1.32 0 2 C0.66 2 1.32 2 2 2 C2 3.32 2 4.64 2 6 C1.01 6 0.02 6 -1 6 C-1.268125 5.195625 -1.53625 4.39125 -1.8125 3.5625 C-2.204375 2.716875 -2.59625 1.87125 -3 1 C-3.99 0.67 -4.98 0.34 -6 0 C-3.50907189 -1.24546405 -2.58919267 -0.7767578 0 0 Z " fill="#057FC3" transform="translate(48,42)"/>
<path d="M0 0 C-2.88087546 2.40072955 -5.56404834 4.47291037 -9 6 C-8.6875 4.125 -8.6875 4.125 -8 2 C-4.77208445 -0.1519437 -3.71599191 -0.20086443 0 0 Z " fill="#0062AA" transform="translate(19,57)"/>
<path d="M0 0 C2.475 0.495 2.475 0.495 5 1 C5 1.66 5 2.32 5 3 C6.32 3.33 7.64 3.66 9 4 C9 4.66 9 5.32 9 6 C5.59687262 4.94124926 2.98646769 3.99097846 0 2 C0 1.34 0 0.68 0 0 Z " fill="#0C447A" transform="translate(44,32)"/>
<path d="M0 0 C1.65 0 3.3 0 5 0 C4.34 1.98 3.68 3.96 3 6 C1.68 5.01 0.36 4.02 -1 3 C-0.67 2.01 -0.34 1.02 0 0 Z " fill="#0A62A0" transform="translate(35,56)"/>
<path d="M0 0 C2.31 0 4.62 0 7 0 C7.33 0.99 7.66 1.98 8 3 C5.03 2.67 2.06 2.34 -1 2 C-0.67 1.34 -0.34 0.68 0 0 Z " fill="#E97219" transform="translate(53,30)"/>
<path d="M0 0 C0.33 0.66 0.66 1.32 1 2 C3.02463255 2.65213292 3.02463255 2.65213292 5 3 C3.6875 4.5 3.6875 4.5 2 6 C1.01 6 0.02 6 -1 6 C-1.042721 4.33388095 -1.04063832 2.66617115 -1 1 C-0.67 0.67 -0.34 0.34 0 0 Z " fill="#057CC1" transform="translate(8,62)"/>
<path d="M0 0 C0.66 0 1.32 0 2 0 C2.144375 0.78375 2.28875 1.5675 2.4375 2.375 C2.87798925 4.96421018 2.87798925 4.96421018 4 7 C1.69 7 -0.62 7 -3 7 C-2.01 4.69 -1.02 2.38 0 0 Z " fill="#1C6CA3" transform="translate(45,35)"/>
<path d="M0 0 C1.32 0 2.64 0 4 0 C3.67 1.65 3.34 3.3 3 5 C2.01 4.67 1.02 4.34 0 4 C0 2.68 0 1.36 0 0 Z " fill="#1E1E1E" transform="translate(311,61)"/>
<path d="M0 0 C4.875 4.75 4.875 4.75 6 7 C4.35 7 2.7 7 1 7 C0.67 4.69 0.34 2.38 0 0 Z " fill="#3191C3" transform="translate(51,55)"/>
<path d="M0 0 C0.99 0 1.98 0 3 0 C3.33 0.99 3.66 1.98 4 3 C2.1875 4.0625 2.1875 4.0625 0 5 C-0.99 4.67 -1.98 4.34 -3 4 C-2.34 3.67 -1.68 3.34 -1 3 C-0.67 2.01 -0.34 1.02 0 0 Z " fill="#1888C7" transform="translate(51,50)"/>
</svg>
